<svg id="boxes" xmlns="http://www.w3.org/2000/svg" viewBox="0 0 188.05 178.05">
  <title>human1</title>
<!--   <rect x="140.34" y="119.64" width="33.57" height="43.86" style="fill: none;stroke: #231f20;stroke-miterlimit: 10"/>
  <rect x="6.95" y="58.07" width="174.15" height="112.71" style="fill: none;stroke: #231f20;stroke-miterlimit: 10;stroke-width: 1.02082880986492px"/>
  <rect x="0.5" y="0.5" width="187.05" height="177.05" style="fill: none;stroke: #231f20;stroke-miterlimit: 10"/> -->
  <g>
    <g>
      <path d="M31.12,62.94a1.9,1.9,0,0,1-.31,0,1.5,1.5,0,0,1-1.1-1.25c-0.18-1-.36-2.09-0.53-3.14q-0.19-1.16-.39-2.32-0.24-1.39-.51-2.77a2.45,2.45,0,0,0-.74-1.37,4.24,4.24,0,0,1-1-1.79,8,8,0,0,1-.44-2.64c0-.73,0-1.47,0-2.2v-2c0-.77,0-1.54,0-2.31A3.15,3.15,0,0,1,28,38.08a5.88,5.88,0,0,1,2.51-.59h3.31a5.66,5.66,0,0,1,2.9.8A3,3,0,0,1,38.3,41c0,2.11,0,4.37,0,6.9a6.84,6.84,0,0,1-1.11,3.78,3,3,0,0,1-.32.37c-0.1.1-.2,0.21-0.29,0.32a1.51,1.51,0,0,0-.32.6l-0.06.29c-0.18.83-.37,1.66-0.52,2.5s-0.32,1.92-.48,2.88-0.33,2-.51,3a1.44,1.44,0,0,1-1.6,1.31h-2Z" transform="translate(-6.67 -14.11)" style="fill: #fff"/>
      <path d="M30.55,37.95h3.34a5.19,5.19,0,0,1,2.65.73A2.55,2.55,0,0,1,37.85,41c0,2.1,0,4.35,0,6.88a6.31,6.31,0,0,1-1,3.54,2.75,2.75,0,0,1-.27.31c-0.11.11-.22,0.23-0.31,0.35a2,2,0,0,0-.41.79l-0.06.28c-0.18.83-.37,1.68-0.52,2.54s-0.32,1.91-.48,2.87-0.33,2-.51,3a1,1,0,0,1-1.16.93h-2.2a1.06,1.06,0,0,1-.73-0.88c-0.18-1-.35-2.08-0.53-3.13q-0.19-1.17-.39-2.33c-0.15-.89-0.32-1.82-0.51-2.78a2.93,2.93,0,0,0-.88-1.61,3.82,3.82,0,0,1-.9-1.6,7.54,7.54,0,0,1-.42-2.49c0-.74,0-1.48,0-2.22v-2c0-.77,0-1.54,0-2.3a2.7,2.7,0,0,1,1.69-2.65,5.44,5.44,0,0,1,2.32-.54m0-.91a6.37,6.37,0,0,0-2.7.63,3.61,3.61,0,0,0-2.21,3.46c0,1.12,0,2.24,0,3.36s0,2.11,0,3.17a8.5,8.5,0,0,0,.47,2.78,4.72,4.72,0,0,0,1.13,2,2,2,0,0,1,.61,1.13q0.27,1.37.51,2.75c0.31,1.82.6,3.64,0.92,5.46a2,2,0,0,0,1.47,1.62,2.4,2.4,0,0,0,.4,0h2a1.89,1.89,0,0,0,2.05-1.69c0.35-2,.65-3.94,1-5.91,0.16-.93.37-1.85,0.58-2.77a1.08,1.08,0,0,1,.23-0.41c0.2-.25.45-0.46,0.63-0.72a7.26,7.26,0,0,0,1.19-4c0-2.31,0-4.61,0-6.92a3.46,3.46,0,0,0-1.77-3,6.08,6.08,0,0,0-3.1-.86H30.54Z" transform="translate(-6.67 -14.11)" style="fill: #231f20"/>
    </g>
    <g>
      <path d="M32,35.44a4.9,4.9,0,1,1,4.91-4.86A4.85,4.85,0,0,1,32,35.44h0Z" transform="translate(-6.67 -14.11)" style="fill: #fff"/>
      <path d="M32.08,25.25v0.91a4.37,4.37,0,1,1-3.14,1.29,4.39,4.39,0,0,1,3.14-1.29V25.25m0,0h0A5.32,5.32,0,0,0,32,35.9h0a5.32,5.32,0,0,0,0-10.65h0Z" transform="translate(-6.67 -14.11)" style="fill: #231f20"/>
    </g>
  </g>
  <g>
    <g>
      <path d="M74.6,62.94a1.91,1.91,0,0,1-.31,0,1.5,1.5,0,0,1-1.1-1.25c-0.18-1-.35-2.07-0.52-3.11q-0.19-1.17-.39-2.35-0.24-1.39-.51-2.77A2.45,2.45,0,0,0,71,52.08a4.25,4.25,0,0,1-1-1.79,8,8,0,0,1-.44-2.64c0-.74,0-1.47,0-2.21v-2c0-.77,0-1.54,0-2.31a3.15,3.15,0,0,1,1.95-3.05A5.88,5.88,0,0,1,74,37.5h3.31a5.66,5.66,0,0,1,2.9.8A3,3,0,0,1,81.79,41c0,2.11,0,4.36,0,6.9a6.84,6.84,0,0,1-1.11,3.78,3,3,0,0,1-.32.37c-0.1.1-.2,0.21-0.29,0.32a1.49,1.49,0,0,0-.32.6l-0.06.27c-0.19.84-.37,1.68-0.52,2.52s-0.32,1.91-.48,2.86-0.33,2-.51,3a1.44,1.44,0,0,1-1.6,1.31h-2Z" transform="translate(-6.67 -14.11)" style="fill: #fff"/>
      <path d="M74,37.95h3.34a5.19,5.19,0,0,1,2.65.73A2.55,2.55,0,0,1,81.33,41c0,2.1,0,4.35,0,6.88a6.31,6.31,0,0,1-1,3.54,2.75,2.75,0,0,1-.27.31c-0.11.11-.22,0.23-0.31,0.35a1.94,1.94,0,0,0-.41.79l-0.06.28c-0.18.82-.37,1.68-0.52,2.53s-0.32,1.91-.48,2.87-0.33,2-.51,3a1,1,0,0,1-1.16.93h-2.2a1.06,1.06,0,0,1-.73-0.88c-0.18-1-.35-2.08-0.53-3.13q-0.19-1.17-.39-2.33c-0.15-.89-0.32-1.82-0.51-2.78a2.93,2.93,0,0,0-.88-1.61,3.82,3.82,0,0,1-.9-1.6A7.54,7.54,0,0,1,70,47.66c0-.74,0-1.48,0-2.22v-2c0-.77,0-1.54,0-2.31a2.7,2.7,0,0,1,1.69-2.65A5.44,5.44,0,0,1,74,37.95M74,37a6.37,6.37,0,0,0-2.7.63,3.61,3.61,0,0,0-2.21,3.46c0,1.12,0,2.24,0,3.36s0,2.11,0,3.17a8.5,8.5,0,0,0,.47,2.78,4.72,4.72,0,0,0,1.13,2,2,2,0,0,1,.61,1.13q0.27,1.37.51,2.75c0.31,1.82.6,3.64,0.92,5.46a2,2,0,0,0,1.47,1.62,2.4,2.4,0,0,0,.4,0h2a1.89,1.89,0,0,0,2.05-1.69c0.35-2,.65-3.94,1-5.91C79.78,54.87,80,54,80.19,53a1.08,1.08,0,0,1,.23-0.41c0.2-.25.45-0.46,0.63-0.72a7.26,7.26,0,0,0,1.19-4c0-2.31,0-4.61,0-6.92a3.46,3.46,0,0,0-1.77-3,6.08,6.08,0,0,0-3.1-.86H74Z" transform="translate(-6.67 -14.11)" style="fill: #231f20"/>
    </g>
    <g>
      <path d="M75.51,35.44a4.9,4.9,0,1,1,4.91-4.86,4.85,4.85,0,0,1-4.91,4.86h0Z" transform="translate(-6.67 -14.11)" style="fill: #fff"/>
      <path d="M75.56,25.25v0.91a4.37,4.37,0,1,1-3.14,1.29,4.39,4.39,0,0,1,3.14-1.29V25.25m0,0h0a5.32,5.32,0,0,0,0,10.65h0a5.32,5.32,0,0,0,0-10.65h0Z" transform="translate(-6.67 -14.11)" style="fill: #231f20"/>
    </g>
  </g>
  <g>
    <g>
      <path d="M118.08,62.94a1.87,1.87,0,0,1-.31,0,1.5,1.5,0,0,1-1.1-1.25c-0.18-1-.35-2.07-0.52-3.1q-0.19-1.18-.39-2.36-0.24-1.39-.51-2.77a2.46,2.46,0,0,0-.74-1.37,4.24,4.24,0,0,1-1-1.79,8,8,0,0,1-.44-2.64c0-.74,0-1.47,0-2.21v-2c0-.77,0-1.55,0-2.32A3.15,3.15,0,0,1,115,38.08a5.88,5.88,0,0,1,2.51-.59h3.31a5.66,5.66,0,0,1,2.91.8A3,3,0,0,1,125.27,41c0,2.09,0,4.35,0,6.9a6.85,6.85,0,0,1-1.11,3.78,3,3,0,0,1-.32.37c-0.1.1-.2,0.21-0.29,0.32a1.48,1.48,0,0,0-.32.6l-0.05.24c-0.19.85-.38,1.69-0.53,2.54s-0.32,1.91-.48,2.86-0.33,2-.51,3a1.44,1.44,0,0,1-1.6,1.31h-2Z" transform="translate(-6.67 -14.11)" style="fill: #fff"/>
      <path d="M117.51,37.95h3.34a5.19,5.19,0,0,1,2.65.73A2.55,2.55,0,0,1,124.81,41c0,2.1,0,4.35,0,6.88a6.3,6.3,0,0,1-1,3.54,2.75,2.75,0,0,1-.27.31c-0.11.11-.22,0.23-0.31,0.35a1.94,1.94,0,0,0-.41.79l-0.06.28c-0.18.82-.37,1.68-0.52,2.53s-0.32,1.91-.48,2.87-0.33,2-.51,3a1,1,0,0,1-1.16.93h-2.2a1.06,1.06,0,0,1-.73-0.88c-0.18-1-.35-2.08-0.53-3.13q-0.19-1.17-.39-2.33c-0.15-.89-0.32-1.83-0.51-2.78a2.93,2.93,0,0,0-.88-1.61,3.82,3.82,0,0,1-.9-1.6,7.54,7.54,0,0,1-.42-2.49c0-.74,0-1.48,0-2.22v-2c0-.77,0-1.54,0-2.31a2.7,2.7,0,0,1,1.69-2.65,5.44,5.44,0,0,1,2.32-.54m0-.91a6.37,6.37,0,0,0-2.7.63,3.61,3.61,0,0,0-2.21,3.46c0,1.12,0,2.24,0,3.36s0,2.11,0,3.17a8.5,8.5,0,0,0,.47,2.78,4.72,4.72,0,0,0,1.13,2,2,2,0,0,1,.61,1.13q0.27,1.37.51,2.75c0.31,1.82.6,3.64,0.92,5.46a2,2,0,0,0,1.47,1.62,2.4,2.4,0,0,0,.4,0h2a1.89,1.89,0,0,0,2.05-1.69c0.35-2,.65-3.94,1-5.91,0.16-.93.37-1.85,0.58-2.77a1.08,1.08,0,0,1,.23-0.41c0.2-.25.45-0.46,0.63-0.72a7.26,7.26,0,0,0,1.19-4c0-2.31,0-4.61,0-6.92a3.46,3.46,0,0,0-1.77-3,6.08,6.08,0,0,0-3.1-.86h-3.34Z" transform="translate(-6.67 -14.11)" style="fill: #231f20"/>
    </g>
    <g>
      <path d="M119,35.44a4.9,4.9,0,1,1,4.91-4.86A4.85,4.85,0,0,1,119,35.44h0Z" transform="translate(-6.67 -14.11)" style="fill: #fff"/>
      <path d="M119,25.25v0.91a4.37,4.37,0,1,1-3.14,1.29A4.39,4.39,0,0,1,119,26.16V25.25m0,0h0a5.32,5.32,0,0,0,0,10.65h0a5.32,5.32,0,0,0,0-10.65h0Z" transform="translate(-6.67 -14.11)" style="fill: #231f20"/>
    </g>
  </g>
  <g>
    <g>
      <path d="M161.57,62.94a1.89,1.89,0,0,1-.31,0,1.5,1.5,0,0,1-1.1-1.25c-0.19-1.06-.36-2.12-0.54-3.18q-0.19-1.14-.38-2.28-0.24-1.39-.51-2.77a2.46,2.46,0,0,0-.74-1.37,4.24,4.24,0,0,1-1-1.79,8,8,0,0,1-.44-2.64c0-.74,0-1.47,0-2.21v-2c0-.77,0-1.53,0-2.3a3.15,3.15,0,0,1,2-3.05A5.88,5.88,0,0,1,161,37.5h3.31a5.66,5.66,0,0,1,2.91.8A3,3,0,0,1,168.75,41c0,2.13,0,4.38,0,6.9a6.84,6.84,0,0,1-1.11,3.78,3,3,0,0,1-.32.37c-0.1.11-.2,0.21-0.29,0.32a1.51,1.51,0,0,0-.32.6l-0.07.29c-0.18.83-.37,1.66-0.51,2.5s-0.33,1.93-.49,2.89-0.33,2-.51,3a1.44,1.44,0,0,1-1.6,1.31h-2Z" transform="translate(-6.67 -14.11)" style="fill: #fff"/>
      <path d="M161,37.95h3.34a5.19,5.19,0,0,1,2.65.73A2.55,2.55,0,0,1,168.3,41c0,2.1,0,4.35,0,6.88a6.31,6.31,0,0,1-1,3.54,2.75,2.75,0,0,1-.27.31c-0.11.11-.22,0.23-0.31,0.35a1.94,1.94,0,0,0-.41.79l-0.06.28c-0.18.83-.37,1.68-0.52,2.54s-0.32,1.91-.48,2.87-0.33,2-.51,3a1,1,0,0,1-1.16.93h-2.2a1.06,1.06,0,0,1-.73-0.88c-0.18-1-.35-2.08-0.53-3.13q-0.19-1.17-.39-2.33c-0.15-.89-0.32-1.82-0.51-2.78a2.93,2.93,0,0,0-.88-1.61,3.82,3.82,0,0,1-.9-1.6,7.54,7.54,0,0,1-.42-2.49c0-.74,0-1.48,0-2.22v-2c0-.77,0-1.54,0-2.3a2.7,2.7,0,0,1,1.69-2.65,5.44,5.44,0,0,1,2.32-.54m0-.91a6.37,6.37,0,0,0-2.7.63,3.61,3.61,0,0,0-2.21,3.46c0,1.12,0,2.24,0,3.36s0,2.11,0,3.17a8.5,8.5,0,0,0,.47,2.78,4.72,4.72,0,0,0,1.13,2,2,2,0,0,1,.61,1.13q0.27,1.37.51,2.75c0.31,1.82.6,3.64,0.92,5.46a2,2,0,0,0,1.47,1.62,2.4,2.4,0,0,0,.4,0h2a1.89,1.89,0,0,0,2.05-1.69c0.35-2,.65-3.94,1-5.91,0.16-.93.37-1.85,0.58-2.77a1.08,1.08,0,0,1,.23-0.41c0.2-.25.45-0.46,0.63-0.72a7.26,7.26,0,0,0,1.19-4c0-2.31,0-4.61,0-6.92a3.46,3.46,0,0,0-1.77-3,6.08,6.08,0,0,0-3.1-.86H161Z" transform="translate(-6.67 -14.11)" style="fill: #231f20"/>
    </g>
    <g>
      <path d="M162.48,35.44a4.9,4.9,0,1,1,4.91-4.86,4.85,4.85,0,0,1-4.91,4.86h0Z" transform="translate(-6.67 -14.11)" style="fill: #fff"/>
      <path d="M162.52,25.25v0.91a4.37,4.37,0,1,1-3.14,1.29,4.39,4.39,0,0,1,3.14-1.29V25.25m0,0h0a5.32,5.32,0,0,0,0,10.65h0a5.32,5.32,0,0,0,0-10.65h0Z" transform="translate(-6.67 -14.11)" style="fill: #231f20"/>
    </g>
  </g>
  <g>
    <g>
      <path d="M32.39,118.62a2.89,2.89,0,0,1-.44,0,1.5,1.5,0,0,1-1.1-1.25c-0.18-1-.36-2.09-0.53-3.14q-0.19-1.16-.39-2.32-0.24-1.39-.51-2.76a2.45,2.45,0,0,0-.74-1.37,4.23,4.23,0,0,1-1-1.79,8,8,0,0,1-.44-2.64c0-.73,0-1.47,0-2.2v-2c0-.77,0-1.54,0-2.31a3.15,3.15,0,0,1,1.95-3.05,5.88,5.88,0,0,1,2.51-.59H35a5.66,5.66,0,0,1,2.9.8,3,3,0,0,1,1.55,2.66c0,2.11,0,4.37,0,6.9a6.84,6.84,0,0,1-1.11,3.78,2.94,2.94,0,0,1-.32.37c-0.1.1-.2,0.21-0.29,0.32a1.52,1.52,0,0,0-.32.6l-0.06.29c-0.18.83-.37,1.66-0.52,2.5s-0.32,1.92-.48,2.88-0.33,2-.51,3a1.44,1.44,0,0,1-1.6,1.31H32.39Z" transform="translate(-6.67 -14.11)" style="fill: #fff"/>
      <path d="M31.68,93.63H35a5.19,5.19,0,0,1,2.65.73A2.55,2.55,0,0,1,39,96.65c0,2.1,0,4.35,0,6.88a6.31,6.31,0,0,1-1,3.54,2.75,2.75,0,0,1-.27.31c-0.11.11-.22,0.23-0.31,0.35a1.94,1.94,0,0,0-.41.79l-0.06.28c-0.18.82-.37,1.68-0.52,2.53s-0.32,1.91-.48,2.87-0.33,2-.51,3a1,1,0,0,1-1.16.93H32a1.06,1.06,0,0,1-.73-0.88c-0.18-1-.35-2.08-0.53-3.13q-0.19-1.17-.39-2.33c-0.15-.89-0.32-1.82-0.51-2.78a2.93,2.93,0,0,0-.88-1.61,3.82,3.82,0,0,1-.9-1.6,7.54,7.54,0,0,1-.42-2.49c0-.74,0-1.48,0-2.22v-2c0-.77,0-1.54,0-2.31a2.7,2.7,0,0,1,1.69-2.65,5.44,5.44,0,0,1,2.32-.54m0-.91a6.37,6.37,0,0,0-2.7.63,3.61,3.61,0,0,0-2.21,3.46c0,1.12,0,2.24,0,3.36s0,2.11,0,3.17a8.5,8.5,0,0,0,.47,2.78,4.72,4.72,0,0,0,1.13,2,2,2,0,0,1,.61,1.13q0.27,1.37.51,2.75c0.31,1.82.6,3.64,0.92,5.46A2,2,0,0,0,31.87,119a2.39,2.39,0,0,0,.4,0h2a1.89,1.89,0,0,0,2.05-1.69c0.35-2,.65-3.94,1-5.91,0.16-.93.37-1.85,0.58-2.77a1.08,1.08,0,0,1,.23-0.41c0.2-.25.45-0.46,0.63-0.72a7.26,7.26,0,0,0,1.19-4c0-2.31,0-4.61,0-6.92a3.46,3.46,0,0,0-1.77-3,6.08,6.08,0,0,0-3.1-.86H31.68Z" transform="translate(-6.67 -14.11)" style="fill: #231f20"/>
    </g>
    <g>
      <path d="M33.17,91.12a4.9,4.9,0,1,1,4.91-4.86,4.85,4.85,0,0,1-4.91,4.86h0Z" transform="translate(-6.67 -14.11)" style="fill: #fff"/>
      <path d="M33.22,80.93v0.91a4.37,4.37,0,1,1-3.14,1.29,4.39,4.39,0,0,1,3.14-1.29V80.93m0,0h0a5.32,5.32,0,0,0,0,10.65h0a5.32,5.32,0,0,0,0-10.65h0Z" transform="translate(-6.67 -14.11)" style="fill: #231f20"/>
    </g>
  </g>
  <g>
    <g>
      <path d="M75.87,118.62a2.91,2.91,0,0,1-.44,0,1.5,1.5,0,0,1-1.1-1.25c-0.18-1-.35-2.07-0.52-3.11q-0.19-1.18-.39-2.35-0.24-1.39-.51-2.76a2.45,2.45,0,0,0-.74-1.37,4.24,4.24,0,0,1-1-1.79,8,8,0,0,1-.44-2.64c0-.74,0-1.47,0-2.21v-2c0-.77,0-1.54,0-2.31a3.15,3.15,0,0,1,1.95-3.05,5.88,5.88,0,0,1,2.51-.59h3.31a5.66,5.66,0,0,1,2.9.8,3,3,0,0,1,1.55,2.66c0,2.11,0,4.36,0,6.9a6.84,6.84,0,0,1-1.11,3.78,3,3,0,0,1-.32.37c-0.1.1-.2,0.21-0.29,0.32a1.49,1.49,0,0,0-.32.6l-0.06.27c-0.19.84-.37,1.68-0.52,2.52s-0.32,1.92-.48,2.88-0.33,2-.51,3a1.44,1.44,0,0,1-1.6,1.31H75.87Z" transform="translate(-6.67 -14.11)" style="fill: #fff"/>
      <path d="M75.17,93.63H78.5a5.19,5.19,0,0,1,2.65.73,2.55,2.55,0,0,1,1.32,2.28c0,2.1,0,4.35,0,6.88a6.31,6.31,0,0,1-1,3.54,2.75,2.75,0,0,1-.27.31c-0.11.11-.22,0.23-0.31,0.35a1.94,1.94,0,0,0-.41.79l-0.06.28c-0.18.83-.37,1.68-0.52,2.54s-0.32,1.91-.48,2.87-0.33,2-.51,3a1,1,0,0,1-1.16.93h-2.2a1.06,1.06,0,0,1-.73-0.88c-0.18-1-.35-2.08-0.53-3.13q-0.19-1.17-.39-2.33c-0.15-.89-0.32-1.82-0.51-2.78a2.93,2.93,0,0,0-.88-1.61,3.82,3.82,0,0,1-.9-1.6,7.54,7.54,0,0,1-.42-2.49c0-.74,0-1.48,0-2.22v-2c0-.77,0-1.54,0-2.3a2.7,2.7,0,0,1,1.69-2.65,5.44,5.44,0,0,1,2.32-.54m0-.91a6.37,6.37,0,0,0-2.7.63,3.61,3.61,0,0,0-2.21,3.46c0,1.12,0,2.24,0,3.36s0,2.11,0,3.17a8.5,8.5,0,0,0,.47,2.78,4.72,4.72,0,0,0,1.13,2,2,2,0,0,1,.61,1.13q0.27,1.37.51,2.75c0.31,1.82.6,3.64,0.92,5.46A2,2,0,0,0,75.35,119a2.39,2.39,0,0,0,.4,0h2a1.89,1.89,0,0,0,2.05-1.69c0.35-2,.65-3.94,1-5.91,0.16-.93.37-1.85,0.58-2.77a1.08,1.08,0,0,1,.23-0.41c0.2-.25.45-0.46,0.63-0.72a7.26,7.26,0,0,0,1.19-4c0-2.31,0-4.61,0-6.92a3.46,3.46,0,0,0-1.77-3,6.08,6.08,0,0,0-3.1-.86H75.17Z" transform="translate(-6.67 -14.11)" style="fill: #231f20"/>
    </g>
    <g>
      <path d="M76.65,91.12a4.9,4.9,0,1,1,4.91-4.86,4.85,4.85,0,0,1-4.91,4.86h0Z" transform="translate(-6.67 -14.11)" style="fill: #fff"/>
      <path d="M76.7,80.93v0.91a4.37,4.37,0,1,1-3.14,1.29,4.39,4.39,0,0,1,3.14-1.29V80.93m0,0h0a5.32,5.32,0,0,0,0,10.65h0a5.32,5.32,0,0,0,0-10.65h0Z" transform="translate(-6.67 -14.11)" style="fill: #231f20"/>
    </g>
  </g>
  <g>
    <g>
      <path d="M119.35,118.62a2.9,2.9,0,0,1-.44,0,1.5,1.5,0,0,1-1.1-1.25c-0.18-1-.35-2.08-0.53-3.12q-0.19-1.17-.39-2.34-0.24-1.39-.51-2.76a2.45,2.45,0,0,0-.75-1.37,4.2,4.2,0,0,1-1-1.79,8,8,0,0,1-.44-2.64c0-.74,0-1.47,0-2.21v-2c0-.77,0-1.53,0-2.3a3.15,3.15,0,0,1,2-3.05,5.88,5.88,0,0,1,2.51-.59H122a5.66,5.66,0,0,1,2.91.8,3,3,0,0,1,1.55,2.66c0,2.12,0,4.38,0,6.9a6.84,6.84,0,0,1-1.11,3.78,2.91,2.91,0,0,1-.32.37c-0.1.1-.2,0.21-0.29,0.32a1.49,1.49,0,0,0-.32.6l-0.06.29c-0.19.83-.37,1.66-0.52,2.5s-0.33,1.93-.49,2.89-0.33,2-.51,3a1.44,1.44,0,0,1-1.6,1.31h-1.84Z" transform="translate(-6.67 -14.11)" style="fill: #fff"/>
      <path d="M118.65,93.63H122a5.19,5.19,0,0,1,2.65.73A2.55,2.55,0,0,1,126,96.65c0,2.1,0,4.35,0,6.88a6.3,6.3,0,0,1-1,3.54,2.75,2.75,0,0,1-.27.31c-0.11.11-.22,0.23-0.31,0.35a1.94,1.94,0,0,0-.41.79l-0.06.28c-0.18.82-.37,1.68-0.52,2.53s-0.32,1.91-.48,2.87-0.33,2-.51,3a1,1,0,0,1-1.16.93H119a1.06,1.06,0,0,1-.73-0.88c-0.18-1-.35-2.08-0.53-3.13q-0.19-1.17-.39-2.33c-0.15-.89-0.32-1.82-0.51-2.78a2.93,2.93,0,0,0-.88-1.61,3.82,3.82,0,0,1-.9-1.6,7.54,7.54,0,0,1-.42-2.49c0-.74,0-1.48,0-2.22v-2c0-.77,0-1.54,0-2.31a2.7,2.7,0,0,1,1.69-2.65,5.44,5.44,0,0,1,2.32-.54m0-.91a6.37,6.37,0,0,0-2.7.63,3.61,3.61,0,0,0-2.21,3.46c0,1.12,0,2.24,0,3.36s0,2.11,0,3.17a8.5,8.5,0,0,0,.47,2.78,4.72,4.72,0,0,0,1.13,2,2,2,0,0,1,.61,1.13q0.27,1.37.51,2.75c0.31,1.82.6,3.64,0.92,5.46a2,2,0,0,0,1.47,1.62,2.39,2.39,0,0,0,.4,0h2a1.89,1.89,0,0,0,2.05-1.69c0.35-2,.65-3.94,1-5.91,0.16-.93.37-1.85,0.58-2.77a1.08,1.08,0,0,1,.23-0.41c0.2-.25.45-0.46,0.63-0.72a7.26,7.26,0,0,0,1.19-4c0-2.31,0-4.61,0-6.92a3.46,3.46,0,0,0-1.77-3,6.08,6.08,0,0,0-3.1-.86h-3.34Z" transform="translate(-6.67 -14.11)" style="fill: #231f20"/>
    </g>
    <g>
      <path d="M120.13,91.12A4.9,4.9,0,1,1,125,86.26a4.85,4.85,0,0,1-4.91,4.86h0Z" transform="translate(-6.67 -14.11)" style="fill: #fff"/>
      <path d="M120.18,80.93v0.91A4.37,4.37,0,1,1,117,83.12a4.39,4.39,0,0,1,3.14-1.29V80.93m0,0h0a5.32,5.32,0,0,0,0,10.65h0a5.32,5.32,0,0,0,0-10.65h0Z" transform="translate(-6.67 -14.11)" style="fill: #231f20"/>
    </g>
  </g>
  <g>
    <g>
      <path d="M162.83,118.62a2.9,2.9,0,0,1-.44,0,1.5,1.5,0,0,1-1.1-1.25c-0.18-1-.35-2.07-0.52-3.1q-0.19-1.18-.39-2.36-0.24-1.39-.51-2.76a2.45,2.45,0,0,0-.75-1.37,4.24,4.24,0,0,1-1-1.79,8,8,0,0,1-.44-2.64c0-.73,0-1.47,0-2.2v-2c0-.77,0-1.55,0-2.32a3.15,3.15,0,0,1,2-3.05,5.88,5.88,0,0,1,2.51-.59h3.31a5.66,5.66,0,0,1,2.91.8,3,3,0,0,1,1.55,2.66c0,2.09,0,4.35,0,6.9a6.85,6.85,0,0,1-1.11,3.78,2.86,2.86,0,0,1-.32.37c-0.1.1-.2,0.21-0.29,0.32a1.48,1.48,0,0,0-.32.6l-0.07.29c-0.18.83-.37,1.66-0.51,2.5s-0.32,1.91-.48,2.86-0.33,2-.51,3a1.44,1.44,0,0,1-1.6,1.31h-1.84Z" transform="translate(-6.67 -14.11)" style="fill: #fff"/>
      <path d="M162.13,93.63h3.34a5.19,5.19,0,0,1,2.65.73,2.55,2.55,0,0,1,1.32,2.28c0,2.1,0,4.35,0,6.88a6.3,6.3,0,0,1-1,3.54,2.75,2.75,0,0,1-.27.31c-0.11.11-.22,0.23-0.31,0.35a1.94,1.94,0,0,0-.41.79l-0.06.28c-0.18.82-.37,1.68-0.52,2.53s-0.32,1.91-.48,2.87-0.33,2-.51,3a1,1,0,0,1-1.16.93h-2.2a1.06,1.06,0,0,1-.73-0.88c-0.18-1-.35-2.08-0.53-3.13q-0.19-1.17-.39-2.33c-0.15-.89-0.32-1.82-0.51-2.78a2.93,2.93,0,0,0-.88-1.61,3.82,3.82,0,0,1-.9-1.6,7.54,7.54,0,0,1-.42-2.49c0-.74,0-1.48,0-2.22v-2c0-.77,0-1.54,0-2.31a2.7,2.7,0,0,1,1.69-2.65,5.44,5.44,0,0,1,2.32-.54m0-.91a6.37,6.37,0,0,0-2.7.63,3.61,3.61,0,0,0-2.21,3.46c0,1.12,0,2.24,0,3.36s0,2.11,0,3.17a8.5,8.5,0,0,0,.47,2.78,4.72,4.72,0,0,0,1.13,2,2,2,0,0,1,.61,1.13q0.27,1.37.51,2.75c0.31,1.82.6,3.64,0.92,5.46a2,2,0,0,0,1.47,1.62,2.4,2.4,0,0,0,.4,0h2a1.89,1.89,0,0,0,2.05-1.69c0.35-2,.65-3.94,1-5.91,0.16-.93.37-1.85,0.58-2.77a1.08,1.08,0,0,1,.23-0.41c0.2-.25.45-0.46,0.63-0.72a7.26,7.26,0,0,0,1.19-4c0-2.31,0-4.61,0-6.92a3.46,3.46,0,0,0-1.77-3,6.08,6.08,0,0,0-3.1-.86h-3.34Z" transform="translate(-6.67 -14.11)" style="fill: #231f20"/>
    </g>
    <g>
      <path d="M163.62,91.12a4.9,4.9,0,1,1,4.91-4.86,4.85,4.85,0,0,1-4.91,4.86h0Z" transform="translate(-6.67 -14.11)" style="fill: #fff"/>
      <path d="M163.66,80.93v0.91a4.37,4.37,0,1,1-3.14,1.29,4.39,4.39,0,0,1,3.14-1.29V80.93m0,0h0a5.32,5.32,0,0,0,0,10.65h0a5.32,5.32,0,0,0,0-10.65h0Z" transform="translate(-6.67 -14.11)" style="fill: #231f20"/>
    </g>
  </g>
  <g>
    <g>
      <path d="M32.39,174.29a2.89,2.89,0,0,1-.44,0,1.5,1.5,0,0,1-1.1-1.25c-0.18-1-.36-2.09-0.53-3.14q-0.19-1.16-.39-2.32-0.24-1.39-.51-2.76a2.45,2.45,0,0,0-.74-1.37,4.23,4.23,0,0,1-1-1.79,8,8,0,0,1-.44-2.64c0-.73,0-1.47,0-2.2v-2c0-.77,0-1.54,0-2.31a3.15,3.15,0,0,1,1.95-3.05,5.89,5.89,0,0,1,2.51-.59H35a5.66,5.66,0,0,1,2.9.8,3,3,0,0,1,1.55,2.66c0,2.11,0,4.37,0,6.9A6.84,6.84,0,0,1,38.33,163a3,3,0,0,1-.32.37c-0.1.11-.2,0.21-0.29,0.32a1.52,1.52,0,0,0-.32.6l-0.06.29c-0.18.83-.37,1.66-0.52,2.5S36.5,169,36.34,170s-0.33,2-.51,3a1.44,1.44,0,0,1-1.6,1.31H32.39Z" transform="translate(-6.67 -14.11)" style="fill: #fff"/>
      <path d="M31.68,149.3H35a5.19,5.19,0,0,1,2.65.73A2.55,2.55,0,0,1,39,152.32c0,2.1,0,4.35,0,6.88a6.3,6.3,0,0,1-1,3.54,2.75,2.75,0,0,1-.27.31c-0.11.11-.22,0.23-0.31,0.35a1.94,1.94,0,0,0-.41.79l-0.06.28c-0.18.82-.37,1.68-0.52,2.53s-0.32,1.91-.48,2.87-0.33,2-.51,3a1,1,0,0,1-1.16.93H32a1.06,1.06,0,0,1-.73-0.88c-0.18-1-.35-2.08-0.53-3.13q-0.19-1.17-.39-2.33c-0.15-.89-0.32-1.82-0.51-2.78a2.93,2.93,0,0,0-.88-1.61,3.82,3.82,0,0,1-.9-1.6,7.54,7.54,0,0,1-.42-2.49c0-.74,0-1.48,0-2.22v-2c0-.77,0-1.54,0-2.31a2.7,2.7,0,0,1,1.69-2.65,5.44,5.44,0,0,1,2.32-.54m0-.91A6.37,6.37,0,0,0,29,149a3.61,3.61,0,0,0-2.21,3.46c0,1.12,0,2.24,0,3.36s0,2.11,0,3.17a8.5,8.5,0,0,0,.47,2.78,4.72,4.72,0,0,0,1.13,2,2,2,0,0,1,.61,1.13q0.27,1.37.51,2.75c0.31,1.82.6,3.64,0.92,5.46a2,2,0,0,0,1.47,1.62,2.39,2.39,0,0,0,.4,0h2a1.89,1.89,0,0,0,2.05-1.69c0.35-2,.65-3.94,1-5.91,0.16-.93.37-1.85,0.58-2.77a1.08,1.08,0,0,1,.23-0.41c0.2-.25.45-0.46,0.63-0.72a7.26,7.26,0,0,0,1.19-4c0-2.31,0-4.61,0-6.92a3.46,3.46,0,0,0-1.77-3,6.08,6.08,0,0,0-3.1-.86H31.68Z" transform="translate(-6.67 -14.11)" style="fill: #231f20"/>
    </g>
    <g>
      <path d="M33.17,146.8a4.9,4.9,0,1,1,4.91-4.86,4.85,4.85,0,0,1-4.91,4.86h0Z" transform="translate(-6.67 -14.11)" style="fill: #fff"/>
      <path d="M33.22,136.6v0.91a4.37,4.37,0,1,1-3.14,1.29,4.39,4.39,0,0,1,3.14-1.29V136.6m0,0h0a5.32,5.32,0,0,0,0,10.65h0a5.32,5.32,0,0,0,0-10.65h0Z" transform="translate(-6.67 -14.11)" style="fill: #231f20"/>
    </g>
  </g>
  <g>
    <g>
      <path d="M75.87,174.29a2.91,2.91,0,0,1-.44,0,1.5,1.5,0,0,1-1.1-1.25c-0.18-1-.35-2.07-0.52-3.11q-0.19-1.18-.39-2.35-0.24-1.39-.51-2.76a2.45,2.45,0,0,0-.74-1.37,4.24,4.24,0,0,1-1-1.79A8,8,0,0,1,70.7,159c0-.74,0-1.47,0-2.21v-2c0-.77,0-1.54,0-2.31a3.15,3.15,0,0,1,1.95-3.05,5.89,5.89,0,0,1,2.51-.59h3.31a5.66,5.66,0,0,1,2.9.8,3,3,0,0,1,1.55,2.66c0,2.11,0,4.36,0,6.9A6.84,6.84,0,0,1,81.81,163a3,3,0,0,1-.32.37c-0.1.1-.2,0.21-0.29,0.32a1.49,1.49,0,0,0-.32.6l-0.06.27c-0.19.84-.37,1.68-0.52,2.52S80,169,79.82,170s-0.33,2-.51,3a1.44,1.44,0,0,1-1.6,1.31H75.87Z" transform="translate(-6.67 -14.11)" style="fill: #fff"/>
      <path d="M75.17,149.3H78.5a5.19,5.19,0,0,1,2.65.73,2.55,2.55,0,0,1,1.32,2.28c0,2.1,0,4.35,0,6.88a6.31,6.31,0,0,1-1,3.54,2.75,2.75,0,0,1-.27.31c-0.11.11-.22,0.23-0.31,0.35a2,2,0,0,0-.41.79l-0.06.28c-0.18.83-.37,1.68-0.52,2.53s-0.32,1.91-.48,2.87-0.33,2-.51,3a1,1,0,0,1-1.16.93h-2.2a1.06,1.06,0,0,1-.73-0.88c-0.18-1-.35-2.08-0.53-3.13q-0.19-1.17-.39-2.33c-0.15-.89-0.32-1.82-0.51-2.78a2.93,2.93,0,0,0-.88-1.61,3.82,3.82,0,0,1-.9-1.6,7.54,7.54,0,0,1-.42-2.49c0-.74,0-1.48,0-2.22v-2c0-.77,0-1.54,0-2.3a2.7,2.7,0,0,1,1.69-2.65,5.44,5.44,0,0,1,2.32-.54m0-.91a6.37,6.37,0,0,0-2.7.63,3.61,3.61,0,0,0-2.21,3.46c0,1.12,0,2.24,0,3.36s0,2.11,0,3.17a8.5,8.5,0,0,0,.47,2.78,4.72,4.72,0,0,0,1.13,2,2,2,0,0,1,.61,1.13q0.27,1.37.51,2.75c0.31,1.82.6,3.64,0.92,5.46a2,2,0,0,0,1.47,1.62,2.39,2.39,0,0,0,.4,0h2a1.89,1.89,0,0,0,2.05-1.69c0.35-2,.65-3.94,1-5.91,0.16-.93.37-1.85,0.58-2.77a1.08,1.08,0,0,1,.23-0.41c0.2-.25.45-0.46,0.63-0.72a7.26,7.26,0,0,0,1.19-4c0-2.31,0-4.61,0-6.92a3.46,3.46,0,0,0-1.77-3,6.08,6.08,0,0,0-3.1-.86H75.17Z" transform="translate(-6.67 -14.11)" style="fill: #231f20"/>
    </g>
    <g>
      <path d="M76.65,146.8a4.9,4.9,0,1,1,4.91-4.86,4.85,4.85,0,0,1-4.91,4.86h0Z" transform="translate(-6.67 -14.11)" style="fill: #fff"/>
      <path d="M76.7,136.6v0.91a4.37,4.37,0,1,1-3.14,1.29,4.39,4.39,0,0,1,3.14-1.29V136.6m0,0h0a5.32,5.32,0,0,0,0,10.65h0a5.32,5.32,0,0,0,0-10.65h0Z" transform="translate(-6.67 -14.11)" style="fill: #231f20"/>
    </g>
  </g>
  <g>
    <g>
      <path d="M119.35,174.29a2.9,2.9,0,0,1-.44,0,1.5,1.5,0,0,1-1.1-1.25c-0.18-1-.35-2.08-0.53-3.12q-0.19-1.17-.39-2.34-0.24-1.39-.51-2.76a2.45,2.45,0,0,0-.75-1.37,4.2,4.2,0,0,1-1-1.79,8,8,0,0,1-.44-2.64c0-.74,0-1.47,0-2.21v-2c0-.77,0-1.54,0-2.3a3.15,3.15,0,0,1,2-3.05,5.89,5.89,0,0,1,2.51-.59H122a5.66,5.66,0,0,1,2.9.8,3,3,0,0,1,1.55,2.66c0,2.12,0,4.38,0,6.9A6.84,6.84,0,0,1,125.3,163a3,3,0,0,1-.32.37c-0.1.11-.2,0.21-0.29,0.32a1.49,1.49,0,0,0-.32.6l-0.06.29c-0.19.83-.37,1.66-0.52,2.5s-0.33,1.93-.49,2.89-0.33,2-.51,3a1.44,1.44,0,0,1-1.6,1.31h-1.84Z" transform="translate(-6.67 -14.11)" style="fill: #fff"/>
      <path d="M118.65,149.3H122a5.19,5.19,0,0,1,2.65.73,2.55,2.55,0,0,1,1.32,2.28c0,2.1,0,4.35,0,6.88a6.3,6.3,0,0,1-1,3.54,2.75,2.75,0,0,1-.27.31c-0.11.11-.22,0.23-0.31,0.35a2,2,0,0,0-.41.79l-0.06.28c-0.18.82-.37,1.68-0.52,2.53s-0.32,1.91-.48,2.87-0.33,2-.51,3a1,1,0,0,1-1.16.93H119a1.06,1.06,0,0,1-.73-0.88c-0.18-1-.35-2.08-0.53-3.13q-0.19-1.17-.39-2.33c-0.15-.89-0.32-1.82-0.51-2.78a2.93,2.93,0,0,0-.88-1.61,3.82,3.82,0,0,1-.9-1.6,7.54,7.54,0,0,1-.42-2.49c0-.74,0-1.48,0-2.22v-2c0-.77,0-1.54,0-2.31a2.7,2.7,0,0,1,1.69-2.65,5.44,5.44,0,0,1,2.32-.54m0-.91a6.37,6.37,0,0,0-2.7.63,3.61,3.61,0,0,0-2.21,3.46c0,1.12,0,2.24,0,3.36s0,2.11,0,3.17a8.5,8.5,0,0,0,.47,2.78,4.72,4.72,0,0,0,1.13,2,2,2,0,0,1,.61,1.13q0.27,1.37.51,2.75c0.31,1.82.6,3.64,0.92,5.46a2,2,0,0,0,1.47,1.62,2.39,2.39,0,0,0,.4,0h2a1.89,1.89,0,0,0,2.05-1.69c0.35-2,.65-3.94,1-5.91,0.16-.93.37-1.85,0.58-2.77A1.08,1.08,0,0,1,125,164c0.2-.25.45-0.46,0.63-0.72a7.26,7.26,0,0,0,1.19-4c0-2.31,0-4.61,0-6.92a3.46,3.46,0,0,0-1.77-3,6.08,6.08,0,0,0-3.1-.86h-3.34Z" transform="translate(-6.67 -14.11)" style="fill: #231f20"/>
    </g>
    <g>
      <path d="M120.13,146.8a4.9,4.9,0,1,1,4.91-4.86,4.85,4.85,0,0,1-4.91,4.86h0Z" transform="translate(-6.67 -14.11)" style="fill: #fff"/>
      <path d="M120.18,136.6v0.91A4.37,4.37,0,1,1,117,138.8a4.4,4.4,0,0,1,3.14-1.29V136.6m0,0h0a5.32,5.32,0,0,0,0,10.65h0a5.32,5.32,0,0,0,0-10.65h0Z" transform="translate(-6.67 -14.11)" style="fill: #231f20"/>
    </g>
  </g>
  <g>
    <g>
      <path d="M162.83,174.29a2.9,2.9,0,0,1-.44,0,1.5,1.5,0,0,1-1.1-1.25c-0.18-1-.35-2.07-0.52-3.1q-0.19-1.18-.39-2.36-0.24-1.39-.51-2.76a2.45,2.45,0,0,0-.75-1.37,4.24,4.24,0,0,1-1-1.79,8,8,0,0,1-.44-2.64c0-.73,0-1.47,0-2.2v-2c0-.77,0-1.55,0-2.32a3.15,3.15,0,0,1,2-3.05,5.89,5.89,0,0,1,2.51-.59h3.31a5.66,5.66,0,0,1,2.9.8,3,3,0,0,1,1.55,2.66c0,2.09,0,4.35,0,6.9a6.85,6.85,0,0,1-1.11,3.78,2.92,2.92,0,0,1-.32.37c-0.1.1-.2,0.21-0.29,0.32a1.48,1.48,0,0,0-.32.6l-0.07.29c-0.18.83-.37,1.66-0.51,2.5s-0.32,1.91-.48,2.86-0.33,2-.51,3a1.44,1.44,0,0,1-1.6,1.31h-1.84Z" transform="translate(-6.67 -14.11)" style="fill: #fff"/>
      <path d="M162.13,149.3h3.34a5.19,5.19,0,0,1,2.65.73,2.55,2.55,0,0,1,1.32,2.28c0,2.1,0,4.35,0,6.88a6.3,6.3,0,0,1-1,3.54,2.75,2.75,0,0,1-.27.31c-0.11.11-.22,0.23-0.31,0.35a1.94,1.94,0,0,0-.41.79l-0.06.28c-0.18.82-.37,1.68-0.52,2.53s-0.32,1.91-.48,2.87-0.33,2-.51,3a1,1,0,0,1-1.16.93h-2.2a1.06,1.06,0,0,1-.73-0.88c-0.18-1-.35-2.08-0.53-3.13q-0.19-1.17-.39-2.33c-0.15-.89-0.32-1.82-0.51-2.78a2.93,2.93,0,0,0-.88-1.61,3.82,3.82,0,0,1-.9-1.6,7.54,7.54,0,0,1-.42-2.49c0-.74,0-1.48,0-2.22v-2c0-.77,0-1.54,0-2.31a2.7,2.7,0,0,1,1.69-2.65,5.44,5.44,0,0,1,2.32-.54m0-.91a6.37,6.37,0,0,0-2.7.63,3.61,3.61,0,0,0-2.21,3.46c0,1.12,0,2.24,0,3.36s0,2.11,0,3.17a8.5,8.5,0,0,0,.47,2.78,4.72,4.72,0,0,0,1.13,2,2,2,0,0,1,.61,1.13q0.27,1.37.51,2.75c0.31,1.82.6,3.64,0.92,5.46a2,2,0,0,0,1.47,1.62,2.39,2.39,0,0,0,.4,0h2a1.89,1.89,0,0,0,2.05-1.69c0.35-2,.65-3.94,1-5.91,0.16-.93.37-1.85,0.58-2.77a1.08,1.08,0,0,1,.23-0.41c0.2-.25.45-0.46,0.63-0.72a7.26,7.26,0,0,0,1.19-4c0-2.31,0-4.61,0-6.92a3.46,3.46,0,0,0-1.77-3,6.08,6.08,0,0,0-3.1-.86h-3.34Z" transform="translate(-6.67 -14.11)" style="fill: #231f20"/>
    </g>
    <g>
      <path d="M163.62,146.8a4.9,4.9,0,1,1,4.91-4.86,4.85,4.85,0,0,1-4.91,4.86h0Z" transform="translate(-6.67 -14.11)" style="fill: #fff"/>
      <path d="M163.66,136.6v0.91a4.37,4.37,0,1,1-3.14,1.29,4.4,4.4,0,0,1,3.14-1.29V136.6m0,0h0a5.32,5.32,0,0,0,0,10.65h0a5.32,5.32,0,0,0,0-10.65h0Z" transform="translate(-6.67 -14.11)" style="fill: #231f20"/>
    </g>
  </g>
  <g class="svg-studyperiod">
    <path d="M26.76,100.16c0-1.12,0-2.24,0-3.36A3.61,3.61,0,0,1,29,93.35a6.34,6.34,0,0,1,2.81-.63c1.07,0,2.13,0,3.2,0a6.07,6.07,0,0,1,3.14.86,3.46,3.46,0,0,1,1.77,3c0.05,2.3,0,4.61,0,6.92a7.26,7.26,0,0,1-1.19,4c-0.18.26-.43,0.47-0.63,0.72a1.08,1.08,0,0,0-.23.41c-0.2.92-.41,1.84-0.58,2.77-0.34,2-.65,3.94-1,5.91a1.89,1.89,0,0,1-2.05,1.69H32.38a3.14,3.14,0,0,1-.51,0,2,2,0,0,1-1.47-1.62c-0.32-1.82-.61-3.64-0.92-5.46q-0.24-1.38-.51-2.75a2,2,0,0,0-.61-1.13,4.72,4.72,0,0,1-1.13-2,8.5,8.5,0,0,1-.47-2.78C26.77,102.28,26.76,101.22,26.76,100.16Z" transform="translate(-6.67 -14.11)" style="fill: #231f20;stroke: #fff;stroke-miterlimit: 10;stroke-width: 0.908985793590546px"/>
    <path d="M27.9,86.25a5.32,5.32,0,1,1,5.31,5.32A5.28,5.28,0,0,1,27.9,86.25Z" transform="translate(-6.67 -14.11)" style="fill: #231f20;stroke: #fff;stroke-miterlimit: 10;stroke-width: 0.908985793590546px"/>
  </g>
  <g class="svg-studyperiod">
    <path d="M70.25,100.16c0-1.12,0-2.24,0-3.36a3.61,3.61,0,0,1,2.21-3.46,6.34,6.34,0,0,1,2.81-.63c1.07,0,2.13,0,3.2,0a6.07,6.07,0,0,1,3.14.86,3.46,3.46,0,0,1,1.77,3c0.05,2.3,0,4.61,0,6.92a7.26,7.26,0,0,1-1.19,4c-0.18.26-.43,0.47-0.63,0.72a1.08,1.08,0,0,0-.23.41c-0.2.92-.41,1.84-0.58,2.77-0.34,2-.65,3.94-1,5.91a1.89,1.89,0,0,1-2.05,1.69H75.87a3.14,3.14,0,0,1-.51,0,2,2,0,0,1-1.47-1.62c-0.32-1.82-.61-3.64-0.92-5.46q-0.24-1.38-.51-2.75a2,2,0,0,0-.61-1.13,4.72,4.72,0,0,1-1.13-2,8.5,8.5,0,0,1-.47-2.78C70.25,102.28,70.25,101.22,70.25,100.16Z" transform="translate(-6.67 -14.11)" style="fill: #231f20;stroke: #fff;stroke-miterlimit: 10;stroke-width: 0.908985793590546px"/>
    <path d="M71.38,86.25a5.32,5.32,0,1,1,5.31,5.32A5.28,5.28,0,0,1,71.38,86.25Z" transform="translate(-6.67 -14.11)" style="fill: #231f20;stroke: #fff;stroke-miterlimit: 10;stroke-width: 0.908985793590546px"/>
  </g>
  <g class="svg-studyperiod">
    <path d="M113.73,100.16c0-1.12,0-2.24,0-3.36a3.61,3.61,0,0,1,2.21-3.46,6.34,6.34,0,0,1,2.81-.63c1.07,0,2.13,0,3.2,0a6.07,6.07,0,0,1,3.14.86,3.46,3.46,0,0,1,1.77,3c0.05,2.3,0,4.61,0,6.92a7.26,7.26,0,0,1-1.19,4c-0.18.26-.43,0.47-0.63,0.72a1.08,1.08,0,0,0-.23.41c-0.2.92-.41,1.84-0.58,2.77-0.34,2-.65,3.94-1,5.91a1.89,1.89,0,0,1-2.05,1.69h-1.84a3.14,3.14,0,0,1-.51,0,2,2,0,0,1-1.47-1.62c-0.32-1.82-.61-3.64-0.92-5.46q-0.24-1.38-.51-2.75a2,2,0,0,0-.61-1.13,4.72,4.72,0,0,1-1.13-2,8.5,8.5,0,0,1-.47-2.78C113.74,102.28,113.73,101.22,113.73,100.16Z" transform="translate(-6.67 -14.11)" style="fill: #231f20;stroke: #fff;stroke-miterlimit: 10;stroke-width: 0.908985793590546px"/>
    <path d="M114.86,86.25a5.32,5.32,0,1,1,5.31,5.32A5.28,5.28,0,0,1,114.86,86.25Z" transform="translate(-6.67 -14.11)" style="fill: #231f20;stroke: #fff;stroke-miterlimit: 10;stroke-width: 0.908985793590546px"/>
  </g>
  <g class="svg-studyperiod">
    <path d="M157.21,100.16c0-1.12,0-2.24,0-3.36a3.61,3.61,0,0,1,2.21-3.46,6.34,6.34,0,0,1,2.81-.63c1.07,0,2.13,0,3.2,0a6.07,6.07,0,0,1,3.14.86,3.46,3.46,0,0,1,1.77,3c0.05,2.3,0,4.61,0,6.92a7.26,7.26,0,0,1-1.19,4c-0.18.26-.43,0.47-0.63,0.72a1.08,1.08,0,0,0-.23.41c-0.2.92-.41,1.84-0.58,2.77-0.34,2-.65,3.94-1,5.91a1.89,1.89,0,0,1-2.05,1.69h-1.84a3.14,3.14,0,0,1-.51,0,2,2,0,0,1-1.47-1.62c-0.32-1.82-.61-3.64-0.92-5.46q-0.24-1.38-.51-2.75a2,2,0,0,0-.61-1.13,4.72,4.72,0,0,1-1.13-2,8.5,8.5,0,0,1-.47-2.78C157.22,102.28,157.21,101.22,157.21,100.16Z" transform="translate(-6.67 -14.11)" style="fill: #231f20;stroke: #fff;stroke-miterlimit: 10;stroke-width: 0.908985793590546px"/>
    <path d="M158.34,86.25a5.32,5.32,0,1,1,5.31,5.32A5.28,5.28,0,0,1,158.34,86.25Z" transform="translate(-6.67 -14.11)" style="fill: #231f20;stroke: #fff;stroke-miterlimit: 10;stroke-width: 0.908985793590546px"/>
  </g>
  <g class="svg-studyperiod">
    <path d="M26.76,155.84c0-1.12,0-2.24,0-3.36A3.61,3.61,0,0,1,29,149a6.34,6.34,0,0,1,2.81-.63c1.07,0,2.13,0,3.2,0a6.07,6.07,0,0,1,3.14.86,3.46,3.46,0,0,1,1.77,3c0.05,2.3,0,4.61,0,6.92a7.26,7.26,0,0,1-1.19,4c-0.18.26-.43,0.47-0.63,0.72a1.08,1.08,0,0,0-.23.41c-0.2.92-.41,1.84-0.58,2.77-0.34,2-.65,3.94-1,5.91a1.89,1.89,0,0,1-2.05,1.69H32.38a3.14,3.14,0,0,1-.51,0,2,2,0,0,1-1.47-1.62c-0.32-1.82-.61-3.64-0.92-5.46q-0.24-1.38-.51-2.75a2,2,0,0,0-.61-1.13,4.72,4.72,0,0,1-1.13-2,8.5,8.5,0,0,1-.47-2.78C26.77,158,26.76,156.9,26.76,155.84Z" transform="translate(-6.67 -14.11)" style="fill: #231f20;stroke: #fff;stroke-miterlimit: 10;stroke-width: 0.908985793590546px"/>
    <path d="M27.9,141.93a5.32,5.32,0,1,1,5.31,5.32A5.28,5.28,0,0,1,27.9,141.93Z" transform="translate(-6.67 -14.11)" style="fill: #231f20;stroke: #fff;stroke-miterlimit: 10;stroke-width: 0.908985793590546px"/>
  </g>
  <g class="svg-studyperiod">
    <path d="M70.25,155.84c0-1.12,0-2.24,0-3.36A3.61,3.61,0,0,1,72.46,149a6.34,6.34,0,0,1,2.81-.63c1.07,0,2.13,0,3.2,0a6.07,6.07,0,0,1,3.14.86,3.46,3.46,0,0,1,1.77,3c0.05,2.3,0,4.61,0,6.92a7.26,7.26,0,0,1-1.19,4c-0.18.26-.43,0.47-0.63,0.72a1.08,1.08,0,0,0-.23.41c-0.2.92-.41,1.84-0.58,2.77-0.34,2-.65,3.94-1,5.91a1.89,1.89,0,0,1-2.05,1.69H75.87a3.14,3.14,0,0,1-.51,0,2,2,0,0,1-1.47-1.62c-0.32-1.82-.61-3.64-0.92-5.46q-0.24-1.38-.51-2.75a2,2,0,0,0-.61-1.13,4.72,4.72,0,0,1-1.13-2,8.5,8.5,0,0,1-.47-2.78C70.25,158,70.25,156.9,70.25,155.84Z" transform="translate(-6.67 -14.11)" style="fill: #231f20;stroke: #fff;stroke-miterlimit: 10;stroke-width: 0.908985793590546px"/>
    <path d="M71.38,141.93a5.32,5.32,0,1,1,5.31,5.32A5.28,5.28,0,0,1,71.38,141.93Z" transform="translate(-6.67 -14.11)" style="fill: #231f20;stroke: #fff;stroke-miterlimit: 10;stroke-width: 0.908985793590546px"/>
  </g>
  <g class="svg-studyperiod">
    <path d="M113.73,155.84c0-1.12,0-2.24,0-3.36a3.61,3.61,0,0,1,2.21-3.46,6.34,6.34,0,0,1,2.81-.63c1.07,0,2.13,0,3.2,0a6.07,6.07,0,0,1,3.14.86,3.46,3.46,0,0,1,1.77,3c0.05,2.3,0,4.61,0,6.92a7.26,7.26,0,0,1-1.19,4c-0.18.26-.43,0.47-0.63,0.72a1.08,1.08,0,0,0-.23.41c-0.2.92-.41,1.84-0.58,2.77-0.34,2-.65,3.94-1,5.91a1.89,1.89,0,0,1-2.05,1.69h-1.84a3.14,3.14,0,0,1-.51,0,2,2,0,0,1-1.47-1.62c-0.32-1.82-.61-3.64-0.92-5.46q-0.24-1.38-.51-2.75a2,2,0,0,0-.61-1.13,4.72,4.72,0,0,1-1.13-2,8.5,8.5,0,0,1-.47-2.78C113.74,158,113.73,156.9,113.73,155.84Z" transform="translate(-6.67 -14.11)" style="fill: #231f20;stroke: #fff;stroke-miterlimit: 10;stroke-width: 0.908985793590546px"/>
    <path d="M114.86,141.93a5.32,5.32,0,1,1,5.31,5.32A5.28,5.28,0,0,1,114.86,141.93Z" transform="translate(-6.67 -14.11)" style="fill: #231f20;stroke: #fff;stroke-miterlimit: 10;stroke-width: 0.908985793590546px"/>
  </g>
  <g class="svg-studyperiod">
    <path d="M157.21,155.84c0-1.12,0-2.24,0-3.36a3.61,3.61,0,0,1,2.21-3.46,6.34,6.34,0,0,1,2.81-.63c1.07,0,2.13,0,3.2,0a6.07,6.07,0,0,1,3.14.86,3.46,3.46,0,0,1,1.77,3c0.05,2.3,0,4.61,0,6.92a7.26,7.26,0,0,1-1.19,4c-0.18.26-.43,0.47-0.63,0.72a1.08,1.08,0,0,0-.23.41c-0.2.92-.41,1.84-0.58,2.77-0.34,2-.65,3.94-1,5.91a1.89,1.89,0,0,1-2.05,1.69h-1.84a3.14,3.14,0,0,1-.51,0,2,2,0,0,1-1.47-1.62c-0.32-1.82-.61-3.64-0.92-5.46q-0.24-1.38-.51-2.75a2,2,0,0,0-.61-1.13,4.72,4.72,0,0,1-1.13-2,8.5,8.5,0,0,1-.47-2.78C157.22,158,157.21,156.9,157.21,155.84Z" transform="translate(-6.67 -14.11)" style="fill: #231f20;stroke: #fff;stroke-miterlimit: 10;stroke-width: 0.908985793590546px"/>
    <path d="M158.34,141.93a5.32,5.32,0,1,1,5.31,5.32A5.28,5.28,0,0,1,158.34,141.93Z" transform="translate(-6.67 -14.11)" style="fill: #231f20;stroke: #fff;stroke-miterlimit: 10;stroke-width: 0.908985793590546px"/>
  </g>
  <g class="svg-onemonth">
    <path d="M157.21,155.84c0-1.12,0-2.24,0-3.36a3.61,3.61,0,0,1,2.21-3.46,6.34,6.34,0,0,1,2.81-.63c1.07,0,2.13,0,3.2,0a6.07,6.07,0,0,1,3.14.86,3.46,3.46,0,0,1,1.77,3c0.05,2.3,0,4.61,0,6.92a7.26,7.26,0,0,1-1.19,4c-0.18.26-.43,0.47-0.63,0.72a1.08,1.08,0,0,0-.23.41c-0.2.92-.41,1.84-0.58,2.77-0.34,2-.65,3.94-1,5.91a1.89,1.89,0,0,1-2.05,1.69h-1.84a3.14,3.14,0,0,1-.51,0,2,2,0,0,1-1.47-1.62c-0.32-1.82-.61-3.64-0.92-5.46q-0.24-1.38-.51-2.75a2,2,0,0,0-.61-1.13,4.72,4.72,0,0,1-1.13-2,8.5,8.5,0,0,1-.47-2.78C157.22,158,157.21,156.9,157.21,155.84Z" transform="translate(-6.67 -14.11)" style="fill: #231f20;stroke: #fff;stroke-miterlimit: 10;stroke-width: 0.908985793590546px"/>
    <path d="M158.34,141.93a5.32,5.32,0,1,1,5.31,5.32A5.28,5.28,0,0,1,158.34,141.93Z" transform="translate(-6.67 -14.11)" style="fill: #231f20;stroke: #fff;stroke-miterlimit: 10;stroke-width: 0.908985793590546px"/>
  </g>
</svg>
